<?xml version="1.0" encoding="UTF-8" standalone="no"?>
<svg
   xmlns:dc="http://purl.org/dc/elements/1.1/"
   xmlns:cc="http://creativecommons.org/ns#"
   xmlns:rdf="http://www.w3.org/1999/02/22-rdf-syntax-ns#"
   xmlns:svg="http://www.w3.org/2000/svg"
   xmlns="http://www.w3.org/2000/svg"
   xmlns:sodipodi="http://sodipodi.sourceforge.net/DTD/sodipodi-0.dtd"
   xmlns:inkscape="http://www.inkscape.org/namespaces/inkscape"
   width="48px"
   height="48"
   viewBox="0 0 210 297"
   version="1.1"
   id="svg163"
   inkscape:version="1.0 (4035a4fb49, 2020-05-01)"
   sodipodi:docname="custom.svg">
  <defs
     id="defs157" />
  <sodipodi:namedview
     id="base"
     pagecolor="#000"
     bordercolor="#666666"
     borderopacity="1.0"
     inkscape:pageopacity="0.0"
     inkscape:pageshadow="2"
     inkscape:zoom="11.2"
     inkscape:cx="42.517465"
     inkscape:cy="26.640705"
     inkscape:document-units="mm"
     inkscape:current-layer="layer1"
     inkscape:document-rotation="0"
     showgrid="false"
     inkscape:window-width="1680"
     inkscape:window-height="987"
     inkscape:window-x="-8"
     inkscape:window-y="-8"
     inkscape:window-maximized="1" />
  <metadata
     id="metadata160">
    <rdf:RDF>
      <cc:Work
         rdf:about="">
        <dc:format>image/svg+xml</dc:format>
        <dc:type
           rdf:resource="http://purl.org/dc/dcmitype/StillImage" />
        <dc:title></dc:title>
      </cc:Work>
    </rdf:RDF>
  </metadata>
  <g
     inkscape:label="Livello 1"
     inkscape:groupmode="layer"
     id="layer1">
    <ellipse
       style="stroke:#ffffff;stroke-width:22.7328;stroke-linecap:round;stroke-linejoin:round;stroke-miterlimit:4;stroke-dasharray:none;stroke-opacity:1;fill:none"
       id="path847-1"
       cx="104.21951"
       cy="148.01355"
       rx="136.3531"
       ry="136.64716"
       class="minilogo" />
    <g
       aria-label="ツ"
       id="text1252"
       transform="translate(-190.02126,-249.24757)"
       style="fill:#ffffff;fill-opacity:1"
       class="minilogo">
      <g
         style="fill:#ffffff;fill-opacity:1"
         id="g1284">
        <path
           style="fill:#ffffff;fill-opacity:1"
           d="m 372.91724,345.66354 c -6.84444,46.19995 -20.53332,79.85177 -41.06663,100.95545 -18.25183,18.82221 -43.06292,33.36664 -74.43326,43.63329 l -15.39998,-17.96665 c 30.79997,-8.55555 54.47031,-20.53331 71.01104,-35.93329 20.53331,-19.39257 33.65182,-54.18513 39.35551,-104.37768 l 20.53332,5.98889 c 5.70369,1.71111 5.70369,4.27777 0,7.69999 z"
           id="path1286"
           sodipodi:nodetypes="cccccccc" />
        <path
           style="fill:#ffffff;fill-opacity:1"
           d="m 351.89453,331.23828 -0.0781,0.67188 c -5.69596,50.12444 -18.8058,84.78533 -39.17969,104.02734 -16.44992,15.3142 -40.03308,27.26038 -70.77149,35.79883 L 241,471.97656 l 16.23242,18.93555 0.36328,-0.11719 c 31.43719,-10.28853 56.33462,-24.87705 74.66407,-43.7793 20.62025,-21.19367 34.31725,-54.8909 41.18359,-101.0371 1.30666,-0.80477 2.38022,-1.57688 3.0957,-2.32813 0.76909,-0.80754 1.22656,-1.6256 1.22656,-2.47851 0,-0.85292 -0.4963,-1.62028 -1.29687,-2.22071 -0.80057,-0.60043 -1.9232,-1.09415 -3.38672,-1.5332 l -0.004,-0.002 z m 0.96485,1.46875 19.89843,5.80469 c 1.38553,0.41609 2.40086,0.88316 3.02539,1.35156 0.62536,0.46902 0.8418,0.87818 0.8418,1.3086 0,0.43041 -0.25527,1.00172 -0.91211,1.6914 -0.65683,0.68968 -1.69089,1.47118 -3.08984,2.31055 l -0.23047,0.13867 -0.0391,0.26758 c -6.83417,46.13061 -20.50178,79.66334 -40.91211,100.64062 v 0.002 c -18.10362,18.66936 -42.71476,33.12536 -73.84571,43.36328 l -14.57422,-17.00586 c 30.43412,-8.55542 53.92259,-20.47279 70.39649,-35.81055 v -0.002 h 0.002 c 20.59743,-19.45313 33.68634,-54.172 39.43946,-104.06055 z"
           id="path1288"
           sodipodi:nodetypes="cccccccccssscccccssscccccccccccc" />
      </g>
    </g>
    <ellipse
       style="fill:#ffffff;stroke:#ffffff;stroke-width:1.74264;stroke-linecap:round;stroke-linejoin:round;stroke-miterlimit:4;stroke-dasharray:none;stroke-opacity:1;fill-opacity:1"
       id="path859-5-3-9"
       cx="-16.864935"
       cy="121.99097"
       rx="15.209476"
       ry="24.395361"
       transform="rotate(-29.170866)"
       class="minilogo" />
    <ellipse
       transform="rotate(-29.170866)"
       ry="24.395361"
       rx="15.209476"
       cy="131.07094"
       cx="33.785946"
       id="path859-5-3-8"
       style="fill:#ffffff;stroke:#ffffff;stroke-width:1.74264;stroke-linecap:round;stroke-linejoin:round;stroke-miterlimit:4;stroke-dasharray:none;stroke-opacity:1;fill-opacity:1"
       class="minilogo" />
  </g>
</svg>
