<?xml version="1.0" encoding="UTF-8" standalone="no"?>
<svg
   xmlns:dc="http://purl.org/dc/elements/1.1/"
   xmlns:cc="http://creativecommons.org/ns#"
   xmlns:rdf="http://www.w3.org/1999/02/22-rdf-syntax-ns#"
   xmlns:svg="http://www.w3.org/2000/svg"
   xmlns="http://www.w3.org/2000/svg"
   xmlns:xlink="http://www.w3.org/1999/xlink"
   xmlns:sodipodi="http://sodipodi.sourceforge.net/DTD/sodipodi-0.dtd"
   xmlns:inkscape="http://www.inkscape.org/namespaces/inkscape"
   sodipodi:docname="logo.svg"
   inkscape:version="1.0 (4035a4fb49, 2020-05-01)"
   id="svg8"
   version="1.1"
   viewBox="0 0 210 297"
   height="135"
   width="445">
  <defs
     id="defs2">
    <linearGradient
       id="linearGradient4846-2"
       inkscape:collect="always">
      <stop
         id="stop4842"
         offset="0"
         style="stop-color:#f3c700;stop-opacity:1;" />
      <stop
         id="stop4844"
         offset="1"
         style="stop-color:#f3c700;stop-opacity:0;" />
    </linearGradient>
    <linearGradient
       id="linearGradient4462"
       inkscape:collect="always">
      <stop
         id="stop4458"
         offset="0"
         style="stop-color:#238fbf;stop-opacity:1;" />
      <stop
         id="stop4460"
         offset="1"
         style="stop-color:#238fbf;stop-opacity:0" />
    </linearGradient>
    <rect
       x="1.6390413"
       y="33.07883"
       width="71.968812"
       height="21.009529"
       id="rect63" />
    <rect
       x="155.39618"
       y="162.88116"
       width="248.78766"
       height="255.05962"
       id="rect1025" />
    <rect
       x="7.1093694"
       y="141.06486"
       width="196.81728"
       height="46.39799"
       id="rect19" />
    <linearGradient
       y2="433.20001"
       x2="998.09998"
       y1="433.20001"
       x1="534.29999"
       gradientUnits="userSpaceOnUse"
       id="SVGID_1_">
      <stop
         id="stop1189"
         style="stop-color:#FFFFFF;stop-opacity:0.2"
         offset="0" />
      <stop
         id="stop1191"
         style="stop-color:#FFFFFF;stop-opacity:2.000000e-02"
         offset="1" />
    </linearGradient>
    <linearGradient
       gradientUnits="userSpaceOnUse"
       y2="54.884693"
       x2="49.978882"
       y1="56.41486"
       x1="50.003017"
       id="linearGradient4466"
       xlink:href="#linearGradient4462"
       inkscape:collect="always" />
    <linearGradient
       gradientUnits="userSpaceOnUse"
       y2="50.788937"
       x2="43.612572"
       y1="52.054413"
       x1="43.66394"
       id="linearGradient4848"
       xlink:href="#linearGradient4846-2"
       inkscape:collect="always" />
    <linearGradient
       gradientUnits="userSpaceOnUse"
       y2="51.022976"
       x2="44.932644"
       y1="52.289482"
       x1="45.006557"
       id="linearGradient4850"
       xlink:href="#linearGradient4846-2"
       inkscape:collect="always" />
  </defs>
  <sodipodi:namedview
     inkscape:window-maximized="1"
     inkscape:window-y="-8"
     inkscape:window-x="-8"
     inkscape:window-height="987"
     inkscape:window-width="1680"
     showgrid="false"
     inkscape:document-rotation="0"
     inkscape:current-layer="text134"
     inkscape:document-units="mm"
     inkscape:cy="68.095651"
     inkscape:cx="320.46333"
     inkscape:zoom="5.6568543"
     inkscape:pageshadow="2"
     inkscape:pageopacity="0.0"
     borderopacity="1.0"
     bordercolor="#666666"
     pagecolor="#212121"
     id="base"
     showguides="false" />
  <metadata
     id="metadata5">
    <rdf:RDF>
      <cc:Work
         rdf:about="">
        <dc:format>image/svg+xml</dc:format>
        <dc:type
           rdf:resource="http://purl.org/dc/dcmitype/StillImage" />
        <dc:title />
      </cc:Work>
    </rdf:RDF>
  </metadata>
  <g
     id="layer1"
     inkscape:groupmode="layer"
     inkscape:label="Livello 1">
    <g
       aria-label="Lottie Cat Maker"
       id="text25"
       style="font-style:normal;font-variant:normal;font-weight:normal;font-stretch:normal;font-size:18.7948px;line-height:1.25;font-family:'Product Sans';-inkscape-font-specification:'Product Sans';fill:#ffffff;stroke-width:0.881004"
       transform="matrix(5.872635,0,0,5.872635,-420.9375,1.3863858e-5)">
      <g
         aria-label="Timmy"
         transform="matrix(2.0877316,0,0,2.0877316,-3.8715986,-37.759588)"
         id="text61"
         style="font-size:8.99085px;line-height:1.25;font-family:'Product Sans';-inkscape-font-specification:'Product Sans';white-space:pre;shape-inside:url(#rect63)">
        <g
           style="font-size:9.30208px;line-height:1.25;font-family:'Product Sans';-inkscape-font-specification:'Product Sans';stroke-width:0.170733"
           id="text134"
           aria-label="Broken English Maker">
          <g
             style="font-style:normal;font-variant:normal;font-weight:normal;font-stretch:normal;font-size:10.5833px;line-height:1.25;font-family:'Product Sans';-inkscape-font-specification:'Product Sans';white-space:pre;shape-inside:url(#rect19);fill:#ffffff;fill-opacity:1;stroke:none;stroke-width:0.881004"
             id="text17"
             transform="matrix(1.4177151,0,0,1.4177151,-6.3329656,-184.91)"
             aria-label="Francesco's ">
            <path
               id="path27"
               style="font-style:normal;font-variant:normal;font-weight:normal;font-stretch:normal;font-family:'Product Sans';-inkscape-font-specification:'Product Sans';fill:#ffffff"
               d="m 8.8450361,147.51419 v 3.24908 H 7.8713726 v -7.57765 h 4.4238194 v 0.93133 H 8.8450361 v 2.48708 h 3.1114899 v 0.91016 z" />
            <path
               id="path29"
               style="font-style:normal;font-variant:normal;font-weight:normal;font-stretch:normal;font-family:'Product Sans';-inkscape-font-specification:'Product Sans';fill:#ffffff"
               d="M 13.988024,150.76327 H 13.01436 v -5.18582 h 0.93133 v 0.84666 h 0.04233 q 0.148166,-0.41275 0.603248,-0.69849 0.465665,-0.29634 0.910163,-0.29634 0.423332,0 0.719665,0.127 l -0.296333,0.94192 q -0.179916,-0.0741 -0.571498,-0.0741 -0.550331,0 -0.96308,0.4445 -0.402165,0.4445 -0.402165,1.03717 z" />
            <path
               id="path31"
               style="font-style:normal;font-variant:normal;font-weight:normal;font-stretch:normal;font-family:'Product Sans';-inkscape-font-specification:'Product Sans';fill:#ffffff"
               d="m 17.361451,149.17577 q 0,0.381 0.317499,0.635 0.328082,0.254 0.761997,0.254 0.613832,0 1.09008,-0.45508 0.486832,-0.45509 0.486832,-1.06892 -0.455082,-0.35983 -1.269996,-0.35983 -0.592665,0 -0.99483,0.28575 -0.391582,0.28575 -0.391582,0.70908 z m 1.259412,-3.76765 q 1.079497,0 1.703912,0.58208 0.624414,0.5715 0.624414,1.57691 v 3.19616 h -0.93133 v -0.71967 h -0.04233 q -0.603248,0.889 -1.608662,0.889 -0.857247,0 -1.439329,-0.508 -0.571498,-0.508 -0.571498,-1.27 0,-0.80433 0.603248,-1.28057 0.613832,-0.47625 1.629828,-0.47625 0.867831,0 1.428746,0.3175 v -0.22225 q 0,-0.508 -0.402166,-0.85725 -0.402165,-0.35983 -0.941913,-0.35983 -0.814914,0 -1.291163,0.68791 l -0.857247,-0.53975 q 0.709081,-1.01599 2.095493,-1.01599 z" />
            <path
               id="path33"
               style="font-style:normal;font-variant:normal;font-weight:normal;font-stretch:normal;font-family:'Product Sans';-inkscape-font-specification:'Product Sans';fill:#ffffff"
               d="m 22.047372,145.57745 h 0.93133 v 0.71966 h 0.04233 q 0.22225,-0.38099 0.677332,-0.63499 0.465665,-0.254 0.96308,-0.254 0.952497,0 1.460495,0.55033 0.518582,0.53975 0.518582,1.54516 v 3.25966 H 25.66686 v -3.19616 q -0.03175,-1.27 -1.280579,-1.27 -0.582081,0 -0.973663,0.47625 -0.391583,0.46567 -0.391583,1.12183 v 2.86808 h -0.973663 z" />
            <path
               id="path35"
               style="font-style:normal;font-variant:normal;font-weight:normal;font-stretch:normal;font-family:'Product Sans';-inkscape-font-specification:'Product Sans';fill:#ffffff"
               d="m 30.164431,150.9326 q -1.15358,0 -1.915577,-0.78317 -0.751415,-0.80433 -0.751415,-1.97907 0,-1.19591 0.751415,-1.97908 0.761997,-0.78316 1.915577,-0.78316 0.793747,0 1.386412,0.40216 0.592665,0.39158 0.888997,1.09008 l -0.888997,0.37042 q -0.412749,-0.97367 -1.449912,-0.97367 -0.666748,0 -1.15358,0.53975 -0.476248,0.53975 -0.476248,1.3335 0,0.79375 0.476248,1.33349 0.486832,0.53975 1.15358,0.53975 1.068913,0 1.502829,-0.97366 l 0.86783,0.37041 q -0.285749,0.6985 -0.89958,1.10067 -0.603248,0.39158 -1.407579,0.39158 z" />
            <path
               id="path37"
               style="font-style:normal;font-variant:normal;font-weight:normal;font-stretch:normal;font-family:'Product Sans';-inkscape-font-specification:'Product Sans';fill:#ffffff"
               d="m 35.579112,150.9326 q -1.142997,0 -1.883828,-0.78317 -0.740831,-0.78316 -0.740831,-1.97907 0,-1.18533 0.719665,-1.9685 0.719664,-0.79374 1.841494,-0.79374 1.15358,0 1.830911,0.75141 0.687914,0.74083 0.687914,2.08491 l -0.01058,0.10583 h -4.07457 q 0.02117,0.762 0.507998,1.22767 0.486832,0.46566 1.164163,0.46566 0.93133,0 1.460495,-0.93133 l 0.867831,0.42333 q -0.349249,0.65617 -0.973664,1.02658 -0.613831,0.37042 -1.396995,0.37042 z m -1.555745,-3.38666 h 2.973907 q -0.04233,-0.53975 -0.444499,-0.88899 -0.391582,-0.35984 -1.05833,-0.35984 -0.550331,0 -0.952497,0.33867 -0.391582,0.33867 -0.518581,0.91016 z" />
            <path
               id="path39"
               style="font-style:normal;font-variant:normal;font-weight:normal;font-stretch:normal;font-family:'Product Sans';-inkscape-font-specification:'Product Sans';fill:#ffffff"
               d="m 42.945254,149.32394 q 0,0.67733 -0.592665,1.14299 -0.592664,0.46567 -1.492245,0.46567 -0.783164,0 -1.375829,-0.40217 -0.592665,-0.41274 -0.846664,-1.07949 l 0.867831,-0.37042 q 0.190499,0.46567 0.550331,0.73025 0.370416,0.254 0.804331,0.254 0.465665,0 0.772581,-0.20108 0.317499,-0.20109 0.317499,-0.47625 0,-0.49742 -0.761998,-0.73025 l -0.888997,-0.22225 q -1.513412,-0.381 -1.513412,-1.46049 0,-0.70909 0.571499,-1.13242 0.582081,-0.43391 1.481662,-0.43391 0.687914,0 1.238246,0.32808 0.560914,0.32808 0.783164,0.87841 l -0.867831,0.35984 q -0.148166,-0.32809 -0.486832,-0.508 -0.328082,-0.1905 -0.740831,-0.1905 -0.380998,0 -0.687914,0.1905 -0.296332,0.1905 -0.296332,0.46566 0,0.4445 0.83608,0.635 l 0.783164,0.20108 q 1.545162,0.381 1.545162,1.55575 z" />
            <path
               id="path41"
               style="font-style:normal;font-variant:normal;font-weight:normal;font-stretch:normal;font-family:'Product Sans';-inkscape-font-specification:'Product Sans';fill:#ffffff"
               d="m 46.225416,150.9326 q -1.153579,0 -1.915577,-0.78317 -0.751414,-0.80433 -0.751414,-1.97907 0,-1.19591 0.751414,-1.97908 0.761998,-0.78316 1.915577,-0.78316 0.793748,0 1.386413,0.40216 0.592665,0.39158 0.888997,1.09008 l -0.888997,0.37042 q -0.412749,-0.97367 -1.449912,-0.97367 -0.666748,0 -1.15358,0.53975 -0.476248,0.53975 -0.476248,1.3335 0,0.79375 0.476248,1.33349 0.486832,0.53975 1.15358,0.53975 1.068913,0 1.502828,-0.97366 l 0.867831,0.37041 q -0.285749,0.6985 -0.899581,1.10067 -0.603248,0.39158 -1.407579,0.39158 z" />
            <path
               id="path45"
               style="font-style:normal;font-variant:normal;font-weight:normal;font-stretch:normal;font-family:'Product Sans';-inkscape-font-specification:'Product Sans';fill:#ffffff"
               d="m 56.006205,143.18562 v 2.39183 h -0.888997 v -2.39183 z" />
            <path
               id="path47"
               style="font-style:normal;font-variant:normal;font-weight:normal;font-stretch:normal;font-family:'Product Sans';-inkscape-font-specification:'Product Sans';fill:#ffffff"
               d="m 61.031949,149.32394 q 0,0.67733 -0.592665,1.14299 -0.592665,0.46567 -1.492245,0.46567 -0.783164,0 -1.375829,-0.40217 -0.592665,-0.41274 -0.846664,-1.07949 l 0.86783,-0.37042 q 0.1905,0.46567 0.550332,0.73025 0.370416,0.254 0.804331,0.254 0.465665,0 0.772581,-0.20108 0.317499,-0.20109 0.317499,-0.47625 0,-0.49742 -0.761998,-0.73025 l -0.888997,-0.22225 q -1.513412,-0.381 -1.513412,-1.46049 0,-0.70909 0.571498,-1.13242 0.582082,-0.43391 1.481662,-0.43391 0.687915,0 1.238246,0.32808 0.560915,0.32808 0.783164,0.87841 l -0.86783,0.35984 q -0.148166,-0.32809 -0.486832,-0.508 -0.328082,-0.1905 -0.740831,-0.1905 -0.380999,0 -0.687914,0.1905 -0.296333,0.1905 -0.296333,0.46566 0,0.4445 0.836081,0.635 l 0.783164,0.20108 q 1.545162,0.381 1.545162,1.55575 z" />
          </g>
          <path
             sodipodi:nodetypes="ccscscccscscccscscscccscsssc"
             id="path4567"
             style="font-style:normal;font-variant:normal;font-weight:normal;font-stretch:normal;font-size:9.30208px;line-height:1.25;font-family:'Product Sans';-inkscape-font-specification:'Product Sans';white-space:pre;shape-inside:url(#rect63);fill:#ffffff;stroke-width:0.158087"
             d="m 5.8960876,38.39609 -1.001219,-4.864229 2.184098,-0.453968 c 0.477858,-0.09932 0.920974,-0.02721 1.329344,0.216333 0.407202,0.237924 0.659881,0.593004 0.758037,1.065241 0.123862,0.595918 -0.06174,1.07142 -0.55682,1.426507 l 0.007,0.03373 c 0.330236,0.03692 0.614406,0.1626 0.852511,0.377023 0.236937,0.208801 0.388708,0.473424 0.455313,0.793872 0.1028334,0.494726 0.0082,0.942512 -0.283795,1.343368 -0.280783,0.398515 -0.528208,-0.411929 -1.347161,0.04357 z m -0.07115,-4.283398 0.383856,1.846785 1.40828,-0.292712 c 0.275472,-0.05726 0.486688,-0.197928 0.633649,-0.42201 0.145792,-0.229704 0.193565,-0.465428 0.14332,-0.707168 -0.04908,-0.236118 -0.183431,-0.431053 -0.403062,-0.584804 -0.218459,-0.14813 -0.459804,-0.194735 -0.724033,-0.139813 z m 0.534594,2.572008 0.331275,1.593801 1.640696,0.06365 c 0.286886,0.01112 0.642316,-0.587121 0.798184,-0.824781 0.150246,-0.236496 0.05458,-0.109023 -0.0016,-0.378871 -0.05492,-0.264235 -0.201213,-0.474282 -0.438876,-0.630151 -0.237664,-0.155866 -0.505475,-0.202834 -0.803434,-0.140902 z" />
          <path
             id="path4569"
             style="font-style:normal;font-variant:normal;font-weight:normal;font-stretch:normal;font-size:9.30208px;line-height:1.25;font-family:'Product Sans';-inkscape-font-specification:'Product Sans';white-space:pre;shape-inside:url(#rect63);fill:#ffffff;stroke-width:0.158087"
             d="m 11.797724,38.395832 -0.775818,0.161255 -0.858858,-4.132075 0.742088,-0.154244 0.140221,0.674625 0.03373,-0.007 q 0.0497,-0.353418 0.364986,-0.656472 0.321966,-0.313241 0.676144,-0.386857 0.337312,-0.07011 0.594464,-0.01799 l -0.08012,0.799597 q -0.155627,-0.02923 -0.46764,0.03562 -0.438506,0.09114 -0.693769,0.51368 -0.24683,0.420783 -0.148676,0.89302 z" />
          <path
             id="path4571"
             style="font-style:normal;font-variant:normal;font-weight:normal;font-stretch:normal;font-size:9.30208px;line-height:1.25;font-family:'Product Sans';-inkscape-font-specification:'Product Sans';white-space:pre;shape-inside:url(#rect63);fill:#ffffff;stroke-width:0.158087"
             d="m 13.172785,35.95473 q -0.198063,-0.952907 0.270961,-1.701381 0.477457,-0.750228 1.396632,-0.94128 0.919177,-0.191052 1.64761,0.30853 0.736867,0.497827 0.93493,1.450735 0.199816,0.961341 -0.279394,1.703135 -0.469023,0.748473 -1.388199,0.939526 -0.919177,0.191052 -1.656044,-0.306777 -0.728434,-0.499581 -0.926496,-1.452488 z m 0.775818,-0.161256 q 0.138468,0.666192 0.612263,0.998772 0.473795,0.332582 1.047226,0.213393 0.57343,-0.11919 0.875454,-0.613024 0.302023,-0.493834 0.163555,-1.160027 -0.136716,-0.657758 -0.610511,-0.990338 -0.483982,-0.33926 -1.048978,-0.221825 -0.564999,0.117436 -0.873703,0.621456 -0.302023,0.493835 -0.165306,1.151593 z" />
          <path
             sodipodi:nodetypes="ccccccccccccccc"
             id="path4573"
             style="font-style:normal;font-variant:normal;font-weight:normal;font-stretch:normal;font-size:9.30208px;line-height:1.25;font-family:'Product Sans';-inkscape-font-specification:'Product Sans';white-space:pre;shape-inside:url(#rect63);fill:#ffffff;stroke-width:0.158087"
             d="m 22.150442,36.244006 -0.936041,0.194558 -1.695109,-1.679804 -0.502756,0.755485 0.275185,1.32395 -0.775818,0.161255 -1.254982,-6.037888 0.775816,-0.161255 0.772972,3.718867 1.410909,-2.18464 0.995072,-0.206827 0.007,0.03373 -1.277641,1.937013 -0.92855,1.415793 z" />
          <path
             sodipodi:nodetypes="csscsccccssccccccccscc"
             id="path4575"
             style="font-style:normal;font-variant:normal;font-weight:normal;font-stretch:normal;font-size:9.30208px;line-height:1.25;font-family:'Product Sans';-inkscape-font-specification:'Product Sans';white-space:pre;shape-inside:url(#rect63);fill:#ffffff;stroke-width:0.158087"
             d="m 23.853333,35.695065 c -0.607163,0.1262 -0.668504,0.257701 -1.148505,-0.07652 -0.480001,-0.334223 -0.786022,-0.81897 -0.918063,-1.454241 -0.130873,-0.62965 -0.0484,-1.192215 0.247414,-1.687691 0.294649,-0.501099 0.739934,-0.81358 1.335852,-0.937441 0.612783,-0.127368 1.140558,-0.02887 1.583321,0.2955 0.447218,0.317576 0.745026,0.833354 0.893429,1.547332 l 0.0091,0.08608 -3.246629,0.674815 c 0.09538,0.402437 0.298079,0.700461 0.608098,0.894072 0.31002,0.193612 0.644929,0.253025 1.004728,0.17824 0.494726,-0.102833 0.831219,-0.43082 1.009484,-0.98397 l 0.761602,0.193586 c -0.113075,0.387117 -0.315009,0.713529 -0.605801,0.979237 -0.285169,0.264538 -0.714267,0.08117 -1.130287,0.167637 z m -1.318268,-2.205328 2.369617,-0.492527 c -0.08208,-0.282042 -0.24922,-0.493621 -0.50141,-0.63474 -0.24774,-0.147908 -0.548697,-0.185054 -0.902876,-0.111438 -0.292337,0.06077 -0.526624,0.203299 -0.702863,0.427598 -0.170617,0.223135 -0.258107,0.493505 -0.262468,0.811107 z" />
          <path
             id="path4577"
             style="font-style:normal;font-variant:normal;font-weight:normal;font-stretch:normal;font-size:9.30208px;line-height:1.25;font-family:'Product Sans';-inkscape-font-specification:'Product Sans';white-space:pre;shape-inside:url(#rect63);fill:#ffffff;stroke-width:0.158087"
             d="m 26.106322,31.111182 0.742087,-0.154243 0.119188,0.573431 0.03373,-0.007 q 0.11399,-0.34039 0.434533,-0.618147 0.328979,-0.279509 0.725318,-0.361889 0.758954,-0.157749 1.254871,0.196623 0.5026,0.344188 0.669113,1.145305 l 0.539852,2.597303 -0.775817,0.161255 -0.529337,-2.546707 q -0.235633,-1.006677 -1.230701,-0.799851 -0.463805,0.0964 -0.696943,0.54073 -0.234892,0.435897 -0.126221,0.958731 l 0.475,2.285289 -0.775817,0.161254 z" />
          <path
             id="path4579"
             style="font-style:normal;font-variant:normal;font-weight:normal;font-stretch:normal;font-size:9.30208px;line-height:1.25;font-family:'Product Sans';-inkscape-font-specification:'Product Sans';white-space:pre;shape-inside:url(#rect63);fill:#ffffff;stroke-width:0.158087"
             d="m 37.119791,32.357804 v 0.757948 h -2.80785 v 1.955159 h 2.532231 v 0.740721 h -2.532231 v 1.955159 h 2.80785 v 0.757947 h -3.600249 v -6.166934 z" />
          <path
             id="path4581"
             style="font-style:normal;font-variant:normal;font-weight:normal;font-stretch:normal;font-size:9.30208px;line-height:1.25;font-family:'Product Sans';-inkscape-font-specification:'Product Sans';white-space:pre;shape-inside:url(#rect63);fill:#ffffff;stroke-width:0.158087"
             d="m 37.974233,34.304351 h 0.757947 v 0.585686 h 0.03446 q 0.18087,-0.310068 0.551232,-0.516782 0.378972,-0.206713 0.783786,-0.206713 0.775174,0 1.188599,0.447878 0.422039,0.439265 0.422039,1.257504 v 2.652814 h -0.792397 v -2.601136 q -0.02584,-1.033565 -1.042179,-1.033565 -0.473716,0 -0.792398,0.387587 -0.318682,0.378973 -0.318682,0.912982 v 2.334132 h -0.792403 z" />
          <path
             id="path4583"
             style="font-style:normal;font-variant:normal;font-weight:normal;font-stretch:normal;font-size:9.30208px;line-height:1.25;font-family:'Product Sans';-inkscape-font-specification:'Product Sans';white-space:pre;shape-inside:url(#rect63);fill:#ffffff;stroke-width:0.158087"
             d="m 44.495241,37.939054 q 0.585687,0 0.956047,-0.422041 0.387587,-0.422039 0.387587,-1.102468 0,-0.663203 -0.387587,-1.093855 -0.378974,-0.430653 -0.956047,-0.430653 -0.56846,0 -0.956047,0.430653 -0.387586,0.430652 -0.387586,1.093855 0,0.671816 0.387586,1.093855 0.387587,0.430654 0.956047,0.430654 z m -0.02584,2.58391 q -0.353135,0 -0.663206,-0.09474 -0.310067,-0.08613 -0.568459,-0.249778 -0.249778,-0.163648 -0.430653,-0.387586 -0.180872,-0.223939 -0.275615,-0.499556 l 0.749334,-0.31007 q 0.129195,0.370361 0.447878,0.5943 0.318682,0.223939 0.740721,0.223939 0.645975,0 1.007723,-0.387587 0.361749,-0.387587 0.361749,-1.068016 v -0.404813 h -0.03446 q -0.223939,0.335907 -0.611524,0.534008 -0.378976,0.189487 -0.826853,0.189487 -0.826852,0 -1.421151,-0.645978 -0.585687,-0.663204 -0.585687,-1.602026 0,-0.93882 0.585687,-1.593411 0.594299,-0.654591 1.421151,-0.654591 0.447877,0 0.826853,0.1981 0.387585,0.189486 0.611524,0.525395 h 0.03446 v -0.585686 h 0.757946 v 4.039515 q 0,1.016338 -0.577074,1.593411 -0.585684,0.585687 -1.550344,0.585688 z" />
          <path
             id="path4585"
             style="font-style:normal;font-variant:normal;font-weight:normal;font-stretch:normal;font-size:9.30208px;line-height:1.25;font-family:'Product Sans';-inkscape-font-specification:'Product Sans';white-space:pre;shape-inside:url(#rect63);fill:#ffffff;stroke-width:0.158087"
             d="m 48.355361,32.357804 v 6.166934 h -0.792399 v -6.166934 z" />
          <path
             id="path4587"
             style="font-style:normal;font-variant:normal;font-weight:normal;font-stretch:normal;font-size:9.30208px;line-height:1.25;font-family:'Product Sans';-inkscape-font-specification:'Product Sans';white-space:pre;shape-inside:url(#rect63);fill:#ffffff;stroke-width:0.158087"
             d="m 50.33744,32.848747 q 0,0.232553 -0.163648,0.3962 -0.163648,0.163648 -0.396199,0.163648 -0.232552,0 -0.3962,-0.163648 -0.163648,-0.163647 -0.163648,-0.3962 0,-0.232552 0.163648,-0.3962 0.163648,-0.163647 0.3962,-0.163647 0.232551,0 0.396199,0.163647 0.163648,0.163648 0.163648,0.3962 z m -0.163648,1.455604 v 4.220387 h -0.792399 v -4.220387 z" />
          <path
             id="path4589"
             style="font-style:normal;font-variant:normal;font-weight:normal;font-stretch:normal;font-size:9.30208px;line-height:1.25;font-family:'Product Sans';-inkscape-font-specification:'Product Sans';white-space:pre;shape-inside:url(#rect63);fill:#ffffff;stroke-width:0.158087"
             d="m 54.443301,37.353367 q 0,0.551235 -0.48233,0.930206 -0.48233,0.378976 -1.214438,0.378976 -0.637365,0 -1.119697,-0.327296 -0.482328,-0.335908 -0.689041,-0.878531 l 0.706267,-0.301455 q 0.155037,0.378972 0.44788,0.594298 0.301455,0.206713 0.654591,0.206713 0.378973,0 0.628751,-0.163646 0.258391,-0.163649 0.258391,-0.387588 0,-0.404813 -0.620138,-0.5943 L 52.29004,36.62987 q -1.231662,-0.310069 -1.231662,-1.188598 0,-0.577075 0.465102,-0.921596 0.473719,-0.353134 1.205827,-0.353134 0.559847,0 1.007725,0.267004 0.456491,0.267005 0.637365,0.714883 l -0.706269,0.292843 q -0.120583,-0.267005 -0.3962,-0.413426 -0.267004,-0.155035 -0.602913,-0.155035 -0.310069,0 -0.559847,0.155035 -0.241165,0.155034 -0.241165,0.378973 0,0.361748 0.68043,0.516783 l 0.637365,0.163647 q 1.257503,0.310071 1.257503,1.266118 z" />
          <path
             id="path4591"
             style="font-style:normal;font-variant:normal;font-weight:normal;font-stretch:normal;font-size:9.30208px;line-height:1.25;font-family:'Product Sans';-inkscape-font-specification:'Product Sans';white-space:pre;shape-inside:url(#rect63);fill:#ffffff;stroke-width:0.158087"
             d="m 55.133017,32.357804 h 0.792399 v 1.946547 l -0.03446,0.585686 h 0.03446 q 0.180874,-0.310068 0.551234,-0.516782 0.378974,-0.206713 0.783786,-0.206713 0.775177,0 1.188599,0.447878 0.422044,0.439265 0.422044,1.257504 v 2.652814 H 58.07868 v -2.497779 q 0,-1.136922 -1.00773,-1.136922 -0.48233,0 -0.818239,0.404813 -0.327295,0.3962 -0.327295,0.930208 v 2.29968 h -0.792399 z" />
          <path
             id="path4593"
             style="font-style:normal;font-variant:normal;font-weight:normal;font-stretch:normal;font-size:9.30208px;line-height:1.25;font-family:'Product Sans';-inkscape-font-specification:'Product Sans';white-space:pre;shape-inside:url(#rect63);fill:#ffffff;stroke-width:0.158087"
             d="m 62.640758,38.524738 h -0.7924 v -6.166934 h 0.7924 l 2.144644,3.755284 h 0.03444 l 2.144654,-3.755284 h 0.792389 v 6.166934 h -0.792384 v -3.660541 l 0.03445,-1.033563 h -0.03445 l -1.929321,3.384923 h -0.465111 l -1.929322,-3.384923 h -0.03444 l 0.03444,1.033563 z" />
          <path
             id="path4595"
             style="font-style:normal;font-variant:normal;font-weight:normal;font-stretch:normal;font-size:9.30208px;line-height:1.25;font-family:'Product Sans';-inkscape-font-specification:'Product Sans';white-space:pre;shape-inside:url(#rect63);fill:#ffffff;stroke-width:0.158087"
             d="m 69.302546,37.232783 q 0,0.310069 0.258389,0.516782 0.267001,0.206713 0.620133,0.206713 0.499556,0 0.887145,-0.370359 0.396199,-0.370362 0.396199,-0.869916 -0.370355,-0.292845 -1.033566,-0.292845 -0.482323,0 -0.809621,0.232552 -0.318679,0.232552 -0.318679,0.577073 z m 1.024946,-3.066241 q 0.878533,0 1.386698,0.473717 0.508168,0.465105 0.508168,1.283343 v 2.601136 h -0.757946 v -0.585684 h -0.03444 q -0.490945,0.723495 -1.309178,0.723495 -0.697656,0 -1.171378,-0.413426 -0.4651,-0.413428 -0.4651,-1.033566 0,-0.654591 0.490945,-1.042176 0.499556,-0.387588 1.3264,-0.387588 0.706278,0 1.162767,0.258391 v -0.180873 q 0,-0.413426 -0.327301,-0.697657 -0.327288,-0.292843 -0.766555,-0.292843 -0.6632,0 -1.05079,0.559848 l -0.697654,-0.439265 q 0.577066,-0.826852 1.705377,-0.826852 z" />
          <path
             id="path4597"
             style="font-style:normal;font-variant:normal;font-weight:normal;font-stretch:normal;font-size:9.30208px;line-height:1.25;font-family:'Product Sans';-inkscape-font-specification:'Product Sans';white-space:pre;shape-inside:url(#rect63);fill:#ffffff;stroke-width:0.158087"
             d="m 76.828313,38.524738 h -0.956045 l -1.3178,-1.989611 -0.645978,0.637365 v 1.352246 h -0.792399 v -6.166934 h 0.792399 v 3.79835 l 1.825968,-1.851803 h 1.016332 v 0.03446 l -1.645088,1.636478 1.722611,2.515008 z" />
          <path
             id="path4599"
             style="font-style:normal;font-variant:normal;font-weight:normal;font-stretch:normal;font-size:9.30208px;line-height:1.25;font-family:'Product Sans';-inkscape-font-specification:'Product Sans';white-space:pre;shape-inside:url(#rect63);fill:#ffffff;stroke-width:0.158087"
             d="m 79.031502,38.662549 q -0.9302,0 -1.533122,-0.637365 -0.602912,-0.637366 -0.602912,-1.610639 0,-0.96466 0.58569,-1.602025 0.585688,-0.645978 1.498666,-0.645978 0.938823,0 1.490055,0.611527 0.559846,0.602911 0.559846,1.696767 l -0.0089,0.08613 h -3.316012 q 0.01723,0.620139 0.413422,0.999112 0.3962,0.378974 0.947434,0.378974 0.757944,0 1.188599,-0.757947 l 0.706267,0.344521 q -0.284221,0.534008 -0.792399,0.835464 -0.499556,0.301457 -1.136922,0.301457 z m -1.26611,-2.756174 h 2.420254 q -0.03444,-0.439264 -0.361744,-0.723495 -0.318677,-0.292843 -0.8613,-0.292843 -0.447878,0 -0.775177,0.275617 -0.318679,0.275618 -0.422033,0.740721 z" />
          <path
             id="path4601"
             style="font-style:normal;font-variant:normal;font-weight:normal;font-stretch:normal;font-size:9.30208px;line-height:1.25;font-family:'Product Sans';-inkscape-font-specification:'Product Sans';white-space:pre;shape-inside:url(#rect63);fill:#ffffff;stroke-width:0.158087"
             d="m 82.538357,38.524738 h -0.792399 v -4.220387 h 0.757944 v 0.689043 h 0.03445 q 0.120587,-0.335909 0.490944,-0.568461 0.378978,-0.241164 0.740722,-0.241164 0.344523,0 0.58569,0.103355 l -0.241167,0.766561 q -0.146424,-0.06029 -0.465111,-0.06029 -0.447878,0 -0.783779,0.361748 -0.327299,0.361747 -0.327299,0.844077 z" />
          <path
             sodipodi:nodetypes="ccscscccscscccccscscccscsssc"
             d="m 6.6318636,41.888771 -1.254982,-6.037889 2.247537,0.228025 c 0.48558,0.04927 0.440196,-0.05064 0.848568,0.192898 0.407202,0.237924 1.077217,-0.06556 1.175372,0.406684 0.123862,0.595918 -0.06174,1.071421 -0.556819,1.426507 l 0.02287,-0.457935 c 0.330236,0.03692 0.392363,0.17846 0.630468,0.392884 0.236936,0.208801 0.5948894,0.949232 0.6614944,1.269678 0.102834,0.494724 0.0082,0.942513 -0.283795,1.343368 -0.2807824,0.398516 -0.6769674,0.650939 -1.1885594,0.757276 z m -0.324921,-5.457056 0.383857,1.846786 1.408279,-0.292713 c 0.275471,-0.05726 0.486688,-0.197929 0.633648,-0.42201 0.145792,-0.229706 0.193565,-0.465428 0.14332,-0.707168 -0.04908,-0.236119 -0.183431,-0.431055 -0.40306,-0.584805 -0.218462,-0.14813 -0.459806,-0.194733 -0.724034,-0.139813 z m 0.383857,1.846786 0.562639,2.706928 1.560069,-0.324261 c 0.281093,-0.05842 0.499574,-0.206471 0.655442,-0.444133 0.150246,-0.236494 0.197323,-0.489667 0.141235,-0.759517 -0.05492,-0.264229 -0.169492,-0.886643 -0.407155,-1.04251 -0.237663,-0.155869 -0.527829,-0.269966 -0.803433,-0.140904 z"
             style="font-style:normal;font-variant:normal;font-weight:normal;font-stretch:normal;font-size:9.30208px;line-height:1.25;font-family:'Product Sans';-inkscape-font-specification:'Product Sans';white-space:pre;shape-inside:url(#rect63);fill:#ffffff;stroke-width:0.158087"
             id="path4567-8" />
          <path
             sodipodi:nodetypes="cccccccsccsccc"
             d="m 12.279735,40.714854 -0.775818,0.161256 -0.858856,-4.132076 0.742086,-0.154243 0.140221,0.674625 0.03373,-0.007 c 0.03313,-0.235611 -0.243921,0.209073 -0.03373,0.007 0.214645,-0.208826 -0.439754,0.479075 -0.203635,0.429999 0.224874,-0.04675 -0.171435,-0.03476 0,0 v 0 c -1.5892044,0.268761 0.411721,-0.347499 0.203712,-0.304263 -0.292338,0.06077 0.597896,-0.126886 0.42772,0.154803 -0.164553,0.280521 -0.214112,0.578195 -0.148676,0.89302 z"
             style="font-style:normal;font-variant:normal;font-weight:normal;font-stretch:normal;font-size:9.30208px;line-height:1.25;font-family:'Product Sans';-inkscape-font-specification:'Product Sans';white-space:pre;shape-inside:url(#rect63);fill:#ffffff;stroke-width:0.158087"
             id="path4569-5" />
          <path
             d="m 13.654797,38.273753 q -0.198064,-0.952907 0.270961,-1.701383 0.477456,-0.750227 1.396633,-0.941278 0.919176,-0.191052 1.64761,0.308528 0.736866,0.49783 0.93493,1.450735 0.199815,0.961342 -0.279395,1.703136 -0.469023,0.748473 -1.3882,0.939526 -0.919176,0.191052 -1.656043,-0.306776 -0.728433,-0.499582 -0.926496,-1.452488 z m 0.775817,-0.161256 q 0.138469,0.666191 0.612264,0.998771 0.473795,0.332582 1.047225,0.213393 0.573431,-0.11919 0.875455,-0.613023 0.302024,-0.493836 0.163555,-1.160027 -0.136717,-0.657758 -0.610512,-0.990338 -0.48398,-0.339262 -1.048977,-0.221825 -0.564999,0.117435 -0.873702,0.621456 -0.302025,0.493835 -0.165308,1.151593 z"
             style="font-style:normal;font-variant:normal;font-weight:normal;font-stretch:normal;font-size:9.30208px;line-height:1.25;font-family:'Product Sans';-inkscape-font-specification:'Product Sans';white-space:pre;shape-inside:url(#rect63);fill:#ffffff;stroke-width:0.158087"
             id="path4571-4" />
          <path
             sodipodi:nodetypes="ccccccccccccccc"
             d="m 22.632453,38.563029 -0.93604,0.194557 -1.695109,-1.679804 -0.502757,0.755486 0.275186,1.323949 -0.775819,0.161256 -1.254982,-6.037889 0.775817,-0.161254 0.772972,3.718865 0.738015,-1.377167 0.40772,0.07363 v 0 l -0.01033,0.882813 2.198371,2.111823 z"
             style="font-style:normal;font-variant:normal;font-weight:normal;font-stretch:normal;font-size:9.30208px;line-height:1.25;font-family:'Product Sans';-inkscape-font-specification:'Product Sans';white-space:pre;shape-inside:url(#rect63);fill:#ffffff;stroke-width:0.158087"
             id="path4573-5" />
          <path
             sodipodi:nodetypes="csscsccccssccccccccscc"
             d="m 24.817584,38.2496 c -0.607162,0.126199 -1.150745,0.02219 -1.630744,-0.312034 -0.480001,-0.334223 -0.786022,-0.81897 -0.918064,-1.454241 -0.130873,-0.62965 -0.0484,-1.192213 0.247416,-1.687691 0.294648,-0.501098 0.650212,-0.0061 1.24613,-0.129969 0.612785,-0.127368 1.446782,0.148755 1.650611,0.0712 0.447218,0.317577 0.507374,-0.168408 0.655775,0.545571 v 0 l -3.141352,0.750616 c 0.09538,0.402438 0.461959,1.12933 0.771974,1.322944 0.310023,0.193609 0.644932,0.253022 1.004732,0.178238 0.494726,-0.102833 0.831219,-0.430821 1.009482,-0.983969 l 0.761603,0.193586 c -0.113075,0.387113 -0.315008,0.713529 -0.605802,0.979234 -0.285168,0.264541 -0.635762,0.440044 -1.051781,0.526513 z m -1.890228,-2.216543 2.459336,-0.716825 c -0.08208,-0.282041 -0.249218,-0.493621 -0.501409,-0.63474 -0.247738,-0.147908 -0.548696,-0.185054 -0.902875,-0.111438 -0.292337,0.06077 -0.526624,0.203298 -0.702863,0.427599 -0.170617,0.223134 -0.347826,0.717801 -0.352189,1.035404 z"
             style="font-style:normal;font-variant:normal;font-weight:normal;font-stretch:normal;font-size:9.30208px;line-height:1.25;font-family:'Product Sans';-inkscape-font-specification:'Product Sans';white-space:pre;shape-inside:url(#rect63);fill:#ffffff;stroke-width:0.158087"
             id="path4575-7" />
          <path
             sodipodi:nodetypes="cccccscscccscsccc"
             d="m 26.588334,33.430204 0.861275,0.419188 v 0 l 0.03374,-0.007 c 0.07599,-0.226927 0.177193,0.499796 0.390888,0.314623 0.219318,-0.18634 0.482307,-0.634134 0.746535,-0.689054 0.505967,-0.105167 0.946687,-0.106911 1.2773,0.129334 0.335065,0.229458 0.558104,0.07292 0.669111,0.60699 l 0.539855,2.597304 -0.77582,0.161254 -0.529335,-2.546707 c -0.157091,-0.671117 -0.567325,-0.937735 -1.230703,-0.799851 -0.309202,0.06427 -0.541517,0.244511 -0.696943,0.54073 -0.156594,0.290598 -0.198669,0.610175 -0.12622,0.95873 l 0.475001,2.28529 -0.775819,0.161254 z"
             style="font-style:normal;font-variant:normal;font-weight:normal;font-stretch:normal;font-size:9.30208px;line-height:1.25;font-family:'Product Sans';-inkscape-font-specification:'Product Sans';white-space:pre;shape-inside:url(#rect63);fill:#ffffff;stroke-width:0.158087"
             id="path4577-9" />
          <path
             sodipodi:nodetypes="ccccccccccccccccccccccc"
             id="path4650"
             d="m 5.0956523,38.470689 4.5754183,-2.216128 2.7364324,1.390646 3.005591,-2.332697 2.108399,0.897191 1.997799,-1.450941 1.703039,1.489481 1.386893,-2.105339 3.38391,0.281928 1.337285,-1.148869 3.514365,0.01787 -0.995583,1.349955 -2.884019,0.599446 -1.57849,0.073 -2.369616,0.492526 -1.68252,1.567291 -2.042835,-0.537853 -1.680508,1.210747 -3.180599,0.06356 -2.63289,0.283337 -0.775818,0.161247 -2.2598041,0.658277 z"
             style="font-style:normal;font-variant:normal;font-weight:normal;font-stretch:normal;font-size:9.30208px;line-height:1.25;font-family:'Product Sans';-inkscape-font-specification:'Product Sans';white-space:pre;shape-inside:url(#rect63);fill:#212121;fill-opacity:1;stroke:#212121;stroke-width:0.518817;stroke-linecap:butt;stroke-linejoin:bevel;stroke-miterlimit:4;stroke-dasharray:none;stroke-opacity:1" />
          <ellipse
             style="font-style:normal;font-variant:normal;font-weight:normal;font-stretch:normal;font-size:8.99085px;line-height:1.25;font-family:'Product Sans';-inkscape-font-specification:'Product Sans';white-space:pre;shape-inside:url(#rect63);fill:#ffffff;fill-opacity:0;fill-rule:evenodd;stroke:#f3c700;stroke-width:0.659254;stroke-linecap:round;stroke-linejoin:round;stroke-miterlimit:4;stroke-dasharray:none;stroke-opacity:1"
             id="path847-1"
             cx="67.355888"
             cy="25.227228"
             rx="3.9542563"
             ry="3.9627838" />
          <g
             transform="matrix(0.02835569,0,0,0.02835569,58.978475,13.716367)"
             aria-label="ツ"
             id="text1252"
             style="font-style:normal;font-variant:normal;font-weight:normal;font-stretch:normal;font-size:219.022px;line-height:1.25;font-family:'Product Sans';-inkscape-font-specification:'Product Sans';white-space:pre;shape-inside:url(#rect63);fill:#f3c700;fill-opacity:1;stroke:none;stroke-width:1.14074;stroke-opacity:1">
            <g
               id="g1284"
               style="opacity:1;fill:#f3c700;fill-opacity:1;stroke:none;stroke-opacity:1">
              <path
                 style="color:#000000;font-style:normal;font-variant:normal;font-weight:normal;font-stretch:normal;font-size:219.022px;line-height:1.25;font-family:'Product Sans';-inkscape-font-specification:'Product Sans';font-variant-ligatures:normal;font-variant-position:normal;font-variant-caps:normal;font-variant-numeric:normal;font-variant-alternates:normal;font-variant-east-asian:normal;font-feature-settings:normal;font-variation-settings:normal;text-indent:0;text-align:start;text-decoration:none;text-decoration-line:none;text-decoration-style:solid;text-decoration-color:#000000;letter-spacing:normal;word-spacing:normal;text-transform:none;writing-mode:lr-tb;direction:ltr;text-orientation:mixed;dominant-baseline:auto;baseline-shift:baseline;text-anchor:start;white-space:normal;shape-padding:0;shape-margin:0;inline-size:0;clip-rule:nonzero;display:inline;overflow:visible;visibility:visible;isolation:auto;mix-blend-mode:normal;color-interpolation:sRGB;color-interpolation-filters:linearRGB;solid-color:#000000;solid-opacity:1;vector-effect:none;fill:#f3c700;fill-opacity:1;fill-rule:nonzero;stroke:none;stroke-width:1.14074;stroke-linecap:butt;stroke-linejoin:miter;stroke-miterlimit:4;stroke-dasharray:none;stroke-dashoffset:0;stroke-opacity:1;color-rendering:auto;image-rendering:auto;shape-rendering:auto;text-rendering:auto;enable-background:accumulate;stop-color:#000000;stop-opacity:1"
                 d="m 372.91724,345.66354 c -6.84444,46.19995 -20.53332,79.85177 -41.06663,100.95545 -18.25183,18.82221 -43.06292,33.36664 -74.43326,43.63329 l -15.39998,-17.96665 c 30.79997,-8.55555 54.47031,-20.53331 71.01104,-35.93329 20.53331,-19.39257 33.65182,-54.18513 39.35551,-104.37768 l 20.53332,5.98889 c 5.70369,1.71111 5.70369,4.27777 0,7.69999 z"
                 id="path1286"
                 sodipodi:nodetypes="cccccccc" />
              <path
                 style="color:#000000;font-style:normal;font-variant:normal;font-weight:normal;font-stretch:normal;font-size:219.022px;line-height:1.25;font-family:'Product Sans';-inkscape-font-specification:'Product Sans';font-variant-ligatures:normal;font-variant-position:normal;font-variant-caps:normal;font-variant-numeric:normal;font-variant-alternates:normal;font-variant-east-asian:normal;font-feature-settings:normal;font-variation-settings:normal;text-indent:0;text-align:start;text-decoration:none;text-decoration-line:none;text-decoration-style:solid;text-decoration-color:#000000;letter-spacing:normal;word-spacing:normal;text-transform:none;writing-mode:lr-tb;direction:ltr;text-orientation:mixed;dominant-baseline:auto;baseline-shift:baseline;text-anchor:start;white-space:normal;shape-padding:0;shape-margin:0;inline-size:0;clip-rule:nonzero;display:inline;overflow:visible;visibility:visible;isolation:auto;mix-blend-mode:normal;color-interpolation:sRGB;color-interpolation-filters:linearRGB;solid-color:#000000;solid-opacity:1;vector-effect:none;fill:#f3c700;fill-opacity:1;fill-rule:nonzero;stroke:none;stroke-width:1.14074;stroke-linecap:butt;stroke-linejoin:miter;stroke-miterlimit:4;stroke-dasharray:none;stroke-dashoffset:0;stroke-opacity:1;color-rendering:auto;image-rendering:auto;shape-rendering:auto;text-rendering:auto;enable-background:accumulate;stop-color:#000000;stop-opacity:1"
                 d="m 351.89453,331.23828 -0.0781,0.67188 c -5.69596,50.12444 -18.8058,84.78533 -39.17969,104.02734 -16.44992,15.3142 -40.03308,27.26038 -70.77149,35.79883 L 241,471.97656 l 16.23242,18.93555 0.36328,-0.11719 c 31.43719,-10.28853 56.33462,-24.87705 74.66407,-43.7793 20.62025,-21.19367 34.31725,-54.8909 41.18359,-101.0371 1.30666,-0.80477 2.38022,-1.57688 3.0957,-2.32813 0.76909,-0.80754 1.22656,-1.6256 1.22656,-2.47851 0,-0.85292 -0.4963,-1.62028 -1.29687,-2.22071 -0.80057,-0.60043 -1.9232,-1.09415 -3.38672,-1.5332 l -0.004,-0.002 z m 0.96485,1.46875 19.89843,5.80469 c 1.38553,0.41609 2.40086,0.88316 3.02539,1.35156 0.62536,0.46902 0.8418,0.87818 0.8418,1.3086 0,0.43041 -0.25527,1.00172 -0.91211,1.6914 -0.65683,0.68968 -1.69089,1.47118 -3.08984,2.31055 l -0.23047,0.13867 -0.0391,0.26758 c -6.83417,46.13061 -20.50178,79.66334 -40.91211,100.64062 v 0.002 c -18.10362,18.66936 -42.71476,33.12536 -73.84571,43.36328 l -14.57422,-17.00586 c 30.43412,-8.55542 53.92259,-20.47279 70.39649,-35.81055 v -0.002 h 0.002 c 20.59743,-19.45313 33.68634,-54.172 39.43946,-104.06055 z"
                 id="path1288"
                 sodipodi:nodetypes="cccccccccssscccccssscccccccccccc" />
            </g>
          </g>
          <ellipse
             style="font-style:normal;font-variant:normal;font-weight:normal;font-stretch:normal;font-size:8.99085px;line-height:1.25;font-family:'Product Sans';-inkscape-font-specification:'Product Sans';white-space:pre;shape-inside:url(#rect63);fill:#f3c700;fill-opacity:1;fill-rule:evenodd;stroke:#f3c700;stroke-width:0.0505366;stroke-linecap:round;stroke-linejoin:round;stroke-miterlimit:4;stroke-dasharray:none;stroke-opacity:1"
             id="path859-5-3-9"
             cx="45.481037"
             cy="53.174572"
             rx="0.44107661"
             ry="0.70746845"
             transform="rotate(-29.170867)" />
          <ellipse
             transform="rotate(-29.170867)"
             ry="0.70746845"
             rx="0.44107661"
             cy="53.437893"
             cx="46.949928"
             id="path859-5-3-8"
             style="font-style:normal;font-variant:normal;font-weight:normal;font-stretch:normal;font-size:8.99085px;line-height:1.25;font-family:'Product Sans';-inkscape-font-specification:'Product Sans';white-space:pre;shape-inside:url(#rect63);fill:#f3c700;fill-opacity:1;fill-rule:evenodd;stroke:#f3c700;stroke-width:0.0505366;stroke-linecap:round;stroke-linejoin:round;stroke-miterlimit:4;stroke-dasharray:none;stroke-opacity:1" />
        </g>
      </g>
    </g>
  </g>
</svg>
